<?xml version="1.0" encoding="UTF-8"?>
<svg width="" height="" viewBox="0 0 413 297" version="1.1" xmlns="http://www.w3.org/2000/svg" xmlns:xlink="http://www.w3.org/1999/xlink">
    <!-- Generator: Sketch 51.1 (57501) - http://www.bohemiancoding.com/sketch -->
    <title>Shape</title>
    <desc>Created with Sketch.</desc>
    <defs></defs>
    <g id="Page-1" stroke="none" stroke-width="1" fill="none" fill-rule="evenodd">
        <g id="864685" fill="#FFC942" fill-rule="nonzero">
            <path d="M404.72,24.944 C404.693,24.944 404.666,24.944 404.64,24.944 L377.52,24.944 L377.52,15.664 C377.666,11.991 375.29,8.69 371.76,7.664 C352.932,2.73 333.544,0.256 314.08,0.304 C282.08,0.304 238.48,7.504 206.24,40.304 C174.24,7.184 130.32,0.304 98.4,0.304 C78.936,0.256 59.548,2.73 40.72,7.664 C37.19,8.69 34.814,11.991 34.96,15.664 L34.96,24.864 L8,24.864 C3.582,24.864 0,28.446 0,32.864 L0,288.384 C0,292.802 3.582,296.384 8,296.384 C9.374,296.38 10.724,296.022 11.92,295.344 C12.72,294.944 92.72,251.184 204.4,279.344 L205.6,279.344 L206.32,279.344 C206.958,279.421 207.602,279.421 208.24,279.344 C320.24,250.944 400.24,294.624 400.72,295.344 C403.195,296.773 406.245,296.773 408.72,295.344 C411.18,293.924 412.703,291.305 412.72,288.464 L412.72,32.944 C412.72,28.526 409.139,24.944 404.72,24.944 Z M16,275.664 L16,40.944 L35.12,40.944 L35.12,241.584 C35.07,246.002 38.611,249.624 43.029,249.674 C43.461,249.679 43.893,249.649 44.32,249.584 C60.87,247.057 77.579,245.72 94.32,245.584 C117.51,245.182 140.603,248.67 162.64,255.904 C112.875,249.886 62.397,256.688 16,275.664 Z M94.32,229.664 C79.769,229.697 65.235,230.632 50.8,232.464 L50.8,21.984 C66.376,18.514 82.282,16.743 98.24,16.704 C128.16,16.704 169.44,23.584 198.08,55.904 L198.32,255.184 C181.68,244.304 149.2,229.664 94.32,229.664 Z M214.32,55.904 C242.96,23.904 284.24,16.704 314.16,16.704 C330.117,16.751 346.023,18.521 361.6,21.984 L361.6,232.464 C347.246,230.615 332.792,229.653 318.32,229.584 C263.76,229.584 231.2,244.224 214.32,255.104 L214.32,55.904 Z M396.64,275.664 C350.144,256.636 299.55,249.833 249.68,255.904 C271.821,248.644 295.024,245.155 318.32,245.584 C335.166,245.678 351.983,246.988 368.64,249.504 C373.008,250.167 377.087,247.163 377.75,242.795 C377.815,242.368 377.845,241.936 377.84,241.504 L377.84,40.944 L396.96,40.944 L396.64,275.664 Z" id="Shape"></path>
        </g>
    </g>
</svg>