<?xml version="1.0" encoding="UTF-8"?>
<svg width="" height="" viewBox="0 0 147 147" version="1.1" xmlns="http://www.w3.org/2000/svg" xmlns:xlink="http://www.w3.org/1999/xlink">
    <!-- Generator: Sketch 51.1 (57501) - http://www.bohemiancoding.com/sketch -->
    <title>Group</title>
    <desc>Created with Sketch.</desc>
    <defs>
        <linearGradient x1="50%" y1="0%" x2="50%" y2="100%" id="linearGradient-1">
            <stop stop-color="#FAD961" offset="0%"></stop>
            <stop stop-color="#F76B1C" offset="100%"></stop>
        </linearGradient>
    </defs>
    <g id="Page-1" stroke="none" stroke-width="1" fill="none" fill-rule="evenodd">
        <g id="Group" fill="url(#linearGradient-1)">
            <path d="M73.5,147 C32.9070709,147 0,114.092929 0,73.5 C0,32.9070709 32.9070709,0 73.5,0 C114.092929,0 147,32.9070709 147,73.5 C147,114.092929 114.092929,147 73.5,147 Z M73,131 C105.032515,131 131,105.032515 131,73 C131,40.9674845 105.032515,15 73,15 C40.9674845,15 15,40.9674845 15,73 C15,105.032515 40.9674845,131 73,131 Z" id="Oval"></path>
            <g id="128384" transform="translate(24.000000, 40.000000)">
                <path d="M1.07307692,39.05 C0.357692308,38.34 0,37.275 0,36.565 C0,35.855 0.357692308,34.79 1.07307692,34.08 L6.08076923,29.11 C7.51153846,27.69 9.65769231,27.69 11.0884615,29.11 L11.4461538,29.465 L31.1192308,50.41 C31.8346154,51.12 32.9076923,51.12 33.6230769,50.41 L81.5538462,1.065 L81.9115385,1.065 C83.3423077,-0.355 85.4884615,-0.355 86.9192308,1.065 L91.9269231,6.035 C93.3576923,7.455 93.3576923,9.585 91.9269231,11.005 L34.6961538,69.935 C33.9807692,70.645 33.2653846,71 32.1923077,71 C31.1192308,71 30.4038462,70.645 29.6884615,69.935 L1.78846154,40.115 L1.07307692,39.05 Z" id="Shape"></path>
            </g>
        </g>
    </g>
</svg>