<?xml version="1.0" encoding="UTF-8"?>
<svg width="" height="" viewBox="0 0 359 483" version="1.1" xmlns="http://www.w3.org/2000/svg" xmlns:xlink="http://www.w3.org/1999/xlink">
    <!-- Generator: Sketch 51.1 (57501) - http://www.bohemiancoding.com/sketch -->
    <title>964748</title>
    <desc>Created with Sketch.</desc>
    <defs></defs>
    <g id="Page-1" stroke="none" stroke-width="1" fill="none" fill-rule="evenodd">
        <g id="964748" fill="#26DA9F" fill-rule="nonzero">
            <path d="M357.433,118.155 C356.333,116.342 354.562,115.037 352.505,114.523 L336.969,110.683 C289.793,99 242.078,127.772 230.395,174.948 C230.394,174.95 230.394,174.953 230.393,174.955 L227.265,187.595 L190.721,210.883 L199.601,147.867 L210.801,139.203 C249.257,109.485 256.341,54.218 226.622,15.762 C226.62,15.76 226.618,15.757 226.617,15.755 L216.833,3.099 C214.133,-0.384 209.126,-1.027 205.633,1.659 L192.953,11.443 C154.502,41.16 147.417,96.42 177.129,134.875 L184.009,143.787 L176.809,194.755 C168.322,178.495 154.928,165.322 138.529,157.107 L134.313,154.995 L131.281,145.107 C116.961,98.692 67.783,72.618 21.329,86.811 L6.025,91.507 C1.802,92.805 -0.57,97.281 0.728,101.504 C0.728,101.505 0.729,101.506 0.729,101.507 L5.425,116.803 C19.69,163.263 68.917,189.363 115.377,175.099 L129.849,170.651 L131.353,171.411 C148.429,179.931 161.39,194.923 167.353,213.051 L169.297,218.955 L44.377,218.955 C39.959,218.955 36.377,222.537 36.377,226.955 L36.377,274.955 C36.377,279.373 39.959,282.955 44.377,282.955 L53.553,282.955 L82.353,462.755 C84.18,474.406 94.232,482.983 106.025,482.955 L254.729,482.955 C266.534,482.999 276.604,474.418 278.433,462.755 L307.201,282.955 L316.377,282.955 C320.795,282.955 324.377,279.373 324.377,274.955 L324.377,226.955 C324.377,222.537 320.795,218.955 316.377,218.955 L207.817,218.955 L235.929,201.035 L247.929,204.003 C295.073,215.705 342.777,186.973 354.479,139.829 C354.485,139.804 354.491,139.78 354.497,139.755 L358.345,124.219 C358.859,122.157 358.53,119.975 357.433,118.155 Z M48.633,129.939 L109.057,160.219 C71.444,170.777 32.27,149.435 20.745,112.107 L18.393,104.459 L26.041,102.115 C62.11,91.098 100.571,109.763 114.233,144.915 L55.833,115.635 C51.883,113.647 47.069,115.237 45.081,119.187 C43.093,123.137 44.683,127.951 48.633,129.939 Z M202.777,24.099 L202.737,24.107 L209.065,19.211 L213.961,25.539 C237.655,56.274 232.726,100.258 202.817,124.987 L211.889,60.555 C212.505,56.179 209.457,52.131 205.081,51.515 C200.705,50.899 196.657,53.947 196.041,58.323 L187.177,121.355 C165.92,89.894 172.747,47.333 202.777,24.099 Z M262.633,460.227 C262.012,464.11 258.661,466.965 254.729,466.963 L106.025,466.963 C102.093,466.965 98.742,464.11 98.121,460.227 L69.761,282.955 L290.993,282.955 L262.633,460.227 Z M308.377,234.955 L308.377,266.955 L52.377,266.955 L52.377,234.955 L308.377,234.955 Z M338.969,135.899 C329.693,173.135 292.844,196.553 255.193,189.139 L302.249,160.771 C306.033,158.487 307.249,153.567 304.965,149.783 C302.681,145.999 297.761,144.783 293.977,147.067 L246.929,175.435 C257.888,138.625 295.858,116.943 333.129,126.211 L340.889,128.131 L338.969,135.899 Z" id="Shape"></path>
        </g>
    </g>
</svg>