<?xml version="1.0" encoding="UTF-8"?>
<svg width="" height="" viewBox="0 0 512 428" version="1.1" xmlns="http://www.w3.org/2000/svg" xmlns:xlink="http://www.w3.org/1999/xlink">
    <!-- Generator: Sketch 51.1 (57501) - http://www.bohemiancoding.com/sketch -->
    <title>Shape</title>
    <desc>Created with Sketch.</desc>
    <defs></defs>
    <g id="Page-1" stroke="none" stroke-width="1" fill="none" fill-rule="evenodd">
        <g id="522561" fill="#2FB4FF" fill-rule="nonzero">
            <path d="M469.333,64.667 L362.667,64.667 L362.667,43.333 C362.667,19.802 343.532,0.666 320,0.666 L192,0.666 C168.469,0.666 149.333,19.801 149.333,43.333 L149.333,64.666 L42.667,64.666 C19.135,64.667 0,83.802 0,107.333 L0,384.666 C0,408.197 19.135,427.333 42.667,427.333 L469.334,427.333 C492.865,427.333 512.001,408.198 512.001,384.666 L512.001,107.333 C512,83.802 492.865,64.667 469.333,64.667 Z M170.667,43.333 C170.667,31.573 180.24,22 192,22 L320,22 C331.76,22 341.333,31.573 341.333,43.333 L341.333,64.666 L170.667,64.666 L170.667,43.333 Z M490.667,384.667 C490.667,396.427 481.094,406 469.334,406 L42.667,406 C30.907,406 21.334,396.427 21.334,384.667 L21.334,229.4 C27.635,233.074 34.861,235.334 42.667,235.334 L213.334,235.334 L213.334,267.334 C213.334,273.23 218.105,278.001 224.001,278.001 L288.001,278.001 C293.897,278.001 298.668,273.23 298.668,267.334 L298.668,235.334 L469.335,235.334 C477.141,235.334 484.368,233.075 490.668,229.4 L490.668,384.667 L490.667,384.667 Z M234.667,256.667 L234.667,214 L277.334,214 L277.334,256.667 L234.667,256.667 Z M490.667,192.667 C490.667,204.427 481.094,214 469.334,214 L298.667,214 L298.667,203.333 C298.667,197.437 293.896,192.666 288,192.666 L224,192.666 C218.104,192.666 213.333,197.437 213.333,203.333 L213.333,214 L42.667,214 C30.907,214 21.334,204.427 21.334,192.667 L21.334,107.334 C21.334,95.574 30.907,86.001 42.667,86.001 L469.334,86.001 C481.094,86.001 490.667,95.574 490.667,107.334 L490.667,192.667 Z" id="Shape"></path>
        </g>
    </g>
</svg>